<svg width="24" height="25" viewBox="0 0 24 25" fill="none" xmlns="http://www.w3.org/2000/svg">
<g clip-path="url(#clip0)">
<path d="M22.9 9.45501C22.5689 9.28723 22.1975 9.21554 21.8277 9.24806C21.458 9.28058 21.1047 9.41601 20.808 9.63901L18.975 11C18.8495 9.7673 18.2714 8.6249 17.3525 7.7937C16.4336 6.9625 15.2391 6.50157 14 6.50001H13.915L9.793 2.37901C9.51528 2.09935 9.18478 1.87764 8.82068 1.72674C8.45658 1.57585 8.06613 1.49878 7.672 1.50001H1C0.734784 1.50001 0.48043 1.60537 0.292893 1.79291C0.105357 1.98044 0 2.2348 0 2.50001C0 2.76523 0.105357 3.01959 0.292893 3.20712C0.48043 3.39466 0.734784 3.50001 1 3.50001H7.672C7.93706 3.50073 8.19114 3.60602 8.379 3.79301L11.086 6.50001H5C3.67441 6.5016 2.40356 7.0289 1.46622 7.96623C0.528882 8.90357 0.00158786 10.1744 0 11.5L0 19.5C0.00158786 20.8256 0.528882 22.0965 1.46622 23.0338C2.40356 23.9711 3.67441 24.4984 5 24.5H14C15.2391 24.4985 16.4336 24.0375 17.3525 23.2063C18.2714 22.3751 18.8495 21.2327 18.975 20L20.805 21.364C21.1021 21.5869 21.4555 21.7226 21.8254 21.7559C22.1953 21.7893 22.5672 21.719 22.8994 21.5529C23.2316 21.3868 23.511 21.1314 23.7063 20.8155C23.9016 20.4995 24.005 20.1354 24.005 19.764V11.243C24.0063 10.8715 23.9034 10.5071 23.7081 10.191C23.5128 9.875 23.2329 9.62003 22.9 9.45501ZM17 19.5C17 20.2957 16.6839 21.0587 16.1213 21.6213C15.5587 22.1839 14.7956 22.5 14 22.5H5C4.20435 22.5 3.44129 22.1839 2.87868 21.6213C2.31607 21.0587 2 20.2957 2 19.5V11.5C2 10.7044 2.31607 9.9413 2.87868 9.37869C3.44129 8.81608 4.20435 8.50001 5 8.50001H14C14.7956 8.50001 15.5587 8.81608 16.1213 9.37869C16.6839 9.9413 17 10.7044 17 11.5V19.5ZM22 19.757L19 17.521V13.479L22 11.243V19.757Z" fill="#111238"/>
</g>
<defs>
<clipPath id="clip0">
<rect width="24" height="24" fill="white" transform="translate(0 0.5)"/>
</clipPath>
</defs>
</svg>
